#!OML:ASF F:\VICON\USERDATA\INSTALL\rory3\rory3.ASF
:FULLY-SPECIFIED
:DEGREES
564
root 1.31625 28.0632 -1.099 -166.107 -5.1347 -177.913
lowerback 9.25006 0.0756057 -6.86227
upperback 1.2638 -0.706209 -0.00203092
thorax -3.7956 -0.304281 3.95261
lowerneck -16.8287 3.76188 -7.83482
upperneck 39.7819 3.35807 2.03744
head 17.1449 -0.879014 2.53758
rclavicle 5.1684e-015 -1.82882e-014
rhumerus 1.79568 0.961173 -75.7105
rradius 94.5844
rwrist -15.9451
rhand -22.2249 -6.68273
rfingers 7.12502
rthumb 4.19158 -36.6212
lclavicle 5.1684e-015 -1.82882e-014
lhumerus -4.50242 -19.8691 82.3887
lradius 53.9233
lwrist 12.2424
lhand -19.8723 16.4948
lfingers 7.12502
lthumb 6.46308 46.3761
rfemur -38.0045 -3.99099 24.0989
rtibia 53.9515
rfoot -18.4833 -1.68343
rtoes -11.9695
lfemur -36.0349 10.0433 -25.5183
ltibia 39.5197
lfoot -11.7914 -3.27316
ltoes -15.9641
565
root 1.30466 28.0723 -1.10124 -166.088 -4.91747 -177.856
lowerback 9.17701 0.0313505 -6.72447
upperback 1.28915 -0.740296 0.0606721
thorax -3.72492 -0.325144 3.94345
lowerneck -17.0884 3.82183 -7.75657
upperneck 39.8861 3.49791 1.91869
head 17.2665 -0.836901 2.50172
rclavicle 6.36111e-015 2.54444e-014
rhumerus 2.13234 1.47522 -75.7234
rradius 94.2368
rwrist -16.0842
rhand -22.7619 -7.12788
rfingers 7.12502
rthumb 3.67304 -37.076
lclavicle 6.36111e-015 2.54444e-014
lhumerus -4.62286 -19.6589 82.2579
lradius 53.9549
lwrist 12.2919
lhand -19.7392 16.547
lfingers 7.12502
lthumb 6.59157 46.4244
rfemur -38.2594 -3.88768 24.1327
rtibia 53.3538
rfoot -18.7106 -1.38154
rtoes -11.7571
lfemur -35.9184 10.0988 -25.4996
ltibia 39.3144
lfoot -11.7388 -3.15455
ltoes -15.8198
566
root 1.29529 28.083 -1.10361 -166.174 -4.70158 -177.698
lowerback 9.213 0.0636395 -6.44254
upperback 1.32165 -0.668595 0.11161
thorax -3.72179 -0.293992 3.82949
lowerneck -17.0693 3.81006 -7.72684
upperneck 39.7544 3.51756 1.8768
head 17.1901 -0.814448 2.48076
rclavicle 4.37326e-015 1.74931e-014
rhumerus 2.32715 1.87587 -75.6995
rradius 94.0291
rwrist -15.9031
rhand -23.6394 -7.9953
rfingers 7.12502
rthumb 2.82561 -37.9563
lclavicle 4.37326e-015 1.74931e-014
lhumerus -4.71093 -19.7156 82.1419
lradius 53.983
lwrist 12.3667
lhand -19.7308 16.6249
lfingers 7.12502
lthumb 6.59969 46.5021
rfemur -38.4009 -3.69502 24.2412
rtibia 52.6716
rfoot -18.461 -1.44736
rtoes -10.8004
lfemur -35.7233 10.2231 -25.3489
ltibia 39.1344
lfoot -11.6685 -3.08321
ltoes -15.8025
567
root 1.28952 28.0927 -1.10432 -166.236 -4.55047 -177.567
lowerback 9.26116 0.0775404 -6.22196
upperback 1.3494 -0.627974 0.174682
thorax -3.72571 -0.276981 3.76668
lowerneck -17.026 3.76052 -7.77364
upperneck 39.5612 3.51123 1.84557
head 17.0741 -0.805951 2.47274
rclavicle 6.36111e-015 -9.54166e-015
rhumerus 2.5858 2.23331 -75.7784
rradius 93.7271
rwrist -15.6602
rhand -24.354 -8.39722
rfingers 7.12502
rthumb 2.13552 -38.3663
lclavicle 6.36111e-015 -9.54166e-015
lhumerus -4.79299 -19.7776 82.0401
lradius 53.9344
lwrist 12.4006
lhand -19.5934 16.7233
lfingers 7.12502
lthumb 6.7323 46.5962
rfemur -38.4992 -3.50797 24.3303
rtibia 51.9455
rfoot -18.3109 -1.32151
rtoes -9.46428
lfemur -35.559 10.2856 -25.2116
ltibia 38.9387
lfoot -11.5735 -2.92767
ltoes -16.0485
568
root 1.28469 28.1027 -1.10578 -166.237 -4.46197 -177.554
lowerback 9.25827 0.0152043 -6.1531
upperback 1.37198 -0.699411 0.251134
thorax -3.69231 -0.314296 3.81629
lowerneck -17.103 3.7345 -7.94555
upperneck 39.4206 3.56105 1.90665
head 17.0069 -0.785127 2.54134
rclavicle -6.36111e-015 -2.38542e-015
rhumerus 2.86456 2.64407 -75.9856
rradius 93.3895
rwrist -15.3795
rhand -24.7134 -8.47848
rfingers 7.12502
rthumb 1.78836 -38.4507
lclavicle -6.36111e-015 -2.38542e-015
lhumerus -5.04262 -19.5273 81.9917
lradius 54.0072
lwrist 12.264
lhand -19.2572 16.7379
lfingers 7.12502
lthumb 7.05684 46.6003
rfemur -38.651 -3.42813 24.3607
rtibia 51.2008
rfoot -18.2788 -0.911911
rtoes -9.90596
lfemur -35.4207 10.2126 -25.1802
ltibia 38.7084
lfoot -11.4353 -2.70899
ltoes -16.1408
